<svg width="31" height="31" viewBox="0 0 31 31" fill="none" xmlns="http://www.w3.org/2000/svg">
<path d="M29.4943 20.8167L22.2139 17.712C21.8382 17.5437 21.4259 17.4738 21.0157 17.5091C20.6056 17.5444 20.2112 17.6837 19.8699 17.9138L15.9735 20.5062C13.5988 19.3529 11.6762 17.4411 10.5093 15.0731L13.0862 11.1301C13.3147 10.7884 13.4543 10.395 13.4923 9.98569C13.5302 9.57635 13.4654 9.164 13.3035 8.7861L10.1833 1.50565C9.96558 1.01405 9.59692 0.604584 9.13079 0.336628C8.66466 0.0686732 8.1253 -0.0438368 7.59091 0.0154143C5.49463 0.290029 3.56939 1.31654 2.17315 2.90409C0.776902 4.49164 0.00466066 6.5322 0 8.64639C0 20.9719 10.0281 31 22.3536 31C24.4678 30.9953 26.5084 30.2231 28.0959 28.8269C29.6835 27.4306 30.71 25.5054 30.9846 23.4091C31.0438 22.8747 30.9313 22.3353 30.6634 21.8692C30.3954 21.4031 29.9859 21.0344 29.4943 20.8167Z" fill="#A9DD67"/>
<path d="M19.4663 3.63233C21.3566 4.14877 23.0796 5.14917 24.4652 6.5348C25.8508 7.92043 26.8512 9.64341 27.3677 11.5337C27.4362 11.7991 27.5906 12.0344 27.8068 12.2029C28.023 12.3713 28.2889 12.4635 28.563 12.4651C28.6733 12.4649 28.783 12.4492 28.889 12.4185C29.0468 12.3772 29.1949 12.3048 29.3244 12.2056C29.4539 12.1064 29.5623 11.9823 29.6433 11.8406C29.7243 11.6989 29.7761 11.5425 29.7959 11.3805C29.8156 11.2185 29.8028 11.0542 29.7583 10.8973C29.1374 8.58224 27.9183 6.47133 26.2235 4.77651C24.5287 3.08169 22.4178 1.86263 20.1028 1.24174C19.9408 1.18272 19.7683 1.15808 19.5962 1.16939C19.4242 1.1807 19.2564 1.2277 19.1035 1.30741C18.9506 1.38712 18.816 1.49778 18.7083 1.63236C18.6005 1.76694 18.5219 1.92248 18.4776 2.08909C18.4332 2.25569 18.4241 2.4297 18.4506 2.60005C18.4772 2.7704 18.539 2.93334 18.632 3.07851C18.725 3.22368 18.8472 3.34789 18.9908 3.44324C19.1345 3.53859 19.2964 3.60299 19.4663 3.63233Z" fill="#A9DD67"/>
<path d="M18.178 8.42905C19.2287 8.71668 20.1864 9.27306 20.9567 10.0434C21.7271 10.8137 22.2834 11.7714 22.5711 12.8222C22.6372 13.0889 22.7909 13.3257 23.0076 13.4946C23.2244 13.6635 23.4916 13.7547 23.7664 13.7536C23.8717 13.7546 23.9765 13.7389 24.0768 13.707C24.2361 13.6674 24.3858 13.5962 24.517 13.4977C24.6483 13.3992 24.7584 13.2753 24.841 13.1335C24.9235 12.9916 24.9767 12.8346 24.9974 12.6718C25.0181 12.509 25.006 12.3437 24.9617 12.1857C24.5696 10.7102 23.7946 9.36457 22.7151 8.28505C21.6356 7.20553 20.2899 6.43049 18.8144 6.03846C18.6524 5.97945 18.4799 5.95481 18.3079 5.96611C18.1359 5.97742 17.9681 6.02442 17.8152 6.10413C17.6623 6.18384 17.5277 6.29451 17.4199 6.42908C17.3122 6.56366 17.2336 6.71921 17.1893 6.88581C17.1449 7.05241 17.1357 7.22643 17.1623 7.39677C17.1889 7.56712 17.2506 7.73006 17.3437 7.87523C17.4367 8.0204 17.5589 8.14462 17.7025 8.23996C17.8462 8.33531 18.0081 8.39971 18.178 8.42905Z" fill="#A9DD67"/>
</svg>
