<svg width="31" height="35" viewBox="0 0 31 35" fill="none" xmlns="http://www.w3.org/2000/svg">
<path d="M28.7857 10.9375H23.8036V8.20312C23.8036 3.67979 20.0808 0 15.5 0C10.9192 0 7.19643 3.67979 7.19643 8.20312V10.9375H2.21429C0.991585 10.9375 0 11.915 0 13.125V29.5312C0 32.5527 2.47862 35 5.53571 35H25.4643C28.5214 35 31 32.5514 31 29.5312V13.125C31 11.915 30.0105 10.9375 28.7857 10.9375ZM10.5179 8.20312C10.5179 5.48926 12.7529 3.28125 15.5 3.28125C18.2471 3.28125 20.4821 5.48926 20.4821 8.20312V10.9375H10.5179V8.20312ZM8.85714 16.9531C7.94375 16.9531 7.19643 16.2217 7.19643 15.3125C7.19643 14.4033 7.94375 13.6719 8.85714 13.6719C9.77054 13.6719 10.5179 14.4102 10.5179 15.3125C10.5179 16.2148 9.77746 16.9531 8.85714 16.9531ZM22.1429 16.9531C21.226 16.9531 20.4821 16.2183 20.4821 15.3125C20.4821 14.4067 21.2295 13.6719 22.1429 13.6719C23.0563 13.6719 23.8036 14.4102 23.8036 15.3125C23.8036 16.2148 23.0632 16.9531 22.1429 16.9531Z" fill="#A9DD67"/>
<path d="M15.1295 31V20.7857L15.9496 21.7129H13V20H17V31H15.1295Z" fill="white"/>
</svg>
