<svg width="33" height="33" viewBox="0 0 33 33" fill="none" xmlns="http://www.w3.org/2000/svg">
<path d="M21.3146 1.10221C19.6711 1.34068 18.1436 2.10768 16.977 3.27428L16.5838 3.661L16.3002 3.43541C15.8941 3.1067 15.082 2.73287 14.5213 2.60397C13.7994 2.44283 12.8906 2.50084 12.1752 2.75221C10.5316 3.3194 9.39727 4.75026 9.18457 6.50983L9.13945 6.86432L8.32734 7.14791C6.31641 7.83756 4.96289 8.77213 4.44082 9.83561L4.22168 10.2803V18.9493V27.6182L4.44082 28.0694C4.69863 28.5915 5.28516 29.2167 5.92324 29.6421C9.10078 31.7883 16.2809 32.5876 22.1461 31.4467C25.5105 30.7958 27.818 29.5776 28.5656 28.0565L28.7783 27.6182V18.9493V10.2803L28.5592 9.83561C28.0693 8.83014 26.7029 7.85045 24.9691 7.24459C24.692 7.14791 24.4342 7.04479 24.402 7.01901C24.3697 6.99323 24.4213 6.79342 24.5115 6.56139C24.9369 5.54303 25.0723 4.64069 25.0723 2.78444C25.0723 1.4567 25.0465 1.28912 24.8209 1.1151C24.6984 1.01842 21.927 1.01197 21.3146 1.10221ZM24.0217 3.39674C23.9959 4.56979 23.9701 4.81471 23.8219 5.3819C23.1709 7.86334 21.1535 9.73248 18.6076 10.2159C18.324 10.2674 17.7375 10.3126 17.2863 10.3126H16.4807L16.7965 9.97096C16.9705 9.79049 18.1564 8.52721 19.4326 7.16725C20.8441 5.66549 21.7723 4.62779 21.8109 4.51178C21.9205 4.13795 21.5145 3.7899 21.1471 3.95104C21.0504 3.98971 20.3156 4.71803 19.5229 5.56236L18.0791 7.09635L18.0018 6.51627C17.9115 5.84596 17.7311 5.26588 17.4539 4.77604L17.2605 4.42799L17.7375 3.97037C18.5689 3.15182 19.684 2.52662 20.7539 2.26237C21.4693 2.09479 21.5467 2.0819 22.9066 2.07545L24.0539 2.06256L24.0217 3.39674ZM9.37793 8.26295C9.60996 8.97838 9.93223 9.48756 10.4994 10.0547C10.9119 10.4608 11.1826 10.6671 11.5371 10.8475C12.4523 11.2987 13.49 11.4534 14.4826 11.2665C14.7984 11.2085 14.908 11.2085 14.966 11.2665C15.0885 11.3889 18.0082 11.3696 18.7301 11.2471C20.2383 10.9829 21.5725 10.3061 22.6682 9.26197C22.9582 8.98483 23.3191 8.59166 23.4674 8.39186C23.6221 8.19205 23.7639 7.99869 23.7832 7.97291C23.8283 7.92135 24.7629 8.23717 25.4074 8.52721C26.8189 9.15885 27.7793 10.087 27.7793 10.8282C27.7793 11.0989 27.5924 11.5307 27.341 11.8272C26.5225 12.8198 24.2537 13.7866 21.5918 14.27C19.7613 14.6051 19.0201 14.6631 16.5 14.6631C14.6244 14.6631 13.9605 14.6374 13.2129 14.5471C10.6928 14.2313 8.88164 13.7608 7.37344 13.0196C5.96836 12.3364 5.2207 11.563 5.2207 10.8024C5.2207 10.1192 6.12305 9.21686 7.40566 8.61744C7.86973 8.3983 9.075 7.93424 9.19746 7.93424C9.23613 7.92779 9.31992 8.08248 9.37793 8.26295ZM6.86426 13.9477C8.46914 14.7469 10.4479 15.2561 13.1162 15.5784C14.5084 15.7395 18.5045 15.7395 19.8838 15.5784C23.2611 15.1723 25.8199 14.3667 27.3152 13.2452L27.7793 12.8971V14.7598V16.6225L27.283 16.8094C26.5869 17.0801 26.11 17.151 25.4525 17.1059C25.0207 17.0737 24.8273 17.0866 24.576 17.1704C24.157 17.3122 23.7574 17.6538 23.5383 18.0727L23.3643 18.4014L23.332 21.3083L23.2998 24.2151L23.1129 24.4794C22.8551 24.8532 22.3459 25.0981 21.9205 25.0594C21.2889 24.995 20.799 24.5631 20.683 23.9702C20.6572 23.8155 20.6314 22.8422 20.625 21.8174C20.625 20.1417 20.6121 19.9225 20.5025 19.684C20.1932 19.0008 19.6646 18.6721 18.8074 18.6399C17.8729 18.6012 17.2734 18.9042 16.8996 19.6196C16.7256 19.9483 16.7256 19.9612 16.6934 21.5919C16.6611 23.3643 16.6547 23.3772 16.2873 23.7704C16.0488 24.0217 15.5461 24.1893 15.2109 24.1313C14.8307 24.0669 14.4568 23.809 14.2635 23.4739L14.083 23.171L14.0508 20.5606C14.0121 17.6602 14.0186 17.6989 13.5545 17.2348C13.1291 16.803 12.8842 16.7256 12.0205 16.7256C11.3051 16.7256 11.2213 16.7385 10.9184 16.8997C10.5574 17.0866 10.3189 17.338 10.0998 17.7505C9.95801 18.0083 9.95801 18.0663 9.92578 21.3663L9.89355 24.7178L9.74531 24.9241C9.56484 25.1819 9.11367 25.3624 8.8043 25.3044C8.5207 25.2528 8.19844 24.9821 8.08242 24.7049C8.01152 24.5438 7.99219 23.9444 7.99219 21.8626C7.99219 18.7688 7.98574 18.743 7.45078 18.2016C7.12207 17.8794 7.07051 17.8536 6.16172 17.5635L5.2207 17.2671V15.0821V12.8971L5.68477 13.2516C5.94258 13.445 6.47109 13.7608 6.86426 13.9477Z" fill="#A9DD67"/>
</svg>
