<svg width="57" height="57" viewBox="0 0 57 57" fill="none" xmlns="http://www.w3.org/2000/svg">
<path d="M36.8162 1.90372C33.9773 2.31564 31.3389 3.64044 29.3238 5.65548L28.6447 6.32345L28.1549 5.9338C27.4535 5.36602 26.0508 4.72033 25.0822 4.49767C23.8354 4.21935 22.2656 4.31954 21.0299 4.75372C18.191 5.73341 16.2316 8.20489 15.8643 11.2442L15.7863 11.8565L14.3836 12.3463C10.9102 13.5375 8.57227 15.1518 7.67051 16.9887L7.29199 17.7568V32.7305V47.7041L7.67051 48.4834C8.11582 49.3852 9.12891 50.465 10.2311 51.1998C15.7195 54.907 28.1215 56.2875 38.2523 54.317C44.0637 53.1926 48.0492 51.0885 49.3406 48.4611L49.708 47.7041V32.7305V17.7568L49.3295 16.9887C48.4834 15.252 46.1232 13.5598 43.1285 12.5133C42.6498 12.3463 42.2045 12.1682 42.1488 12.1236C42.0932 12.0791 42.1822 11.734 42.3381 11.3332C43.0728 9.57423 43.3066 8.01564 43.3066 4.80939C43.3066 2.51603 43.2621 2.22657 42.8725 1.92599C42.6609 1.759 37.8738 1.74786 36.8162 1.90372ZM41.492 5.867C41.4475 7.89318 41.4029 8.31622 41.1469 9.29591C40.0225 13.582 36.5379 16.8106 32.1404 17.6455C31.6506 17.7346 30.6375 17.8125 29.8582 17.8125H28.4666L29.0121 17.2225C29.3127 16.9108 31.3611 14.7287 33.5654 12.3797C36.0035 9.78575 37.6066 7.99337 37.6734 7.79298C37.8627 7.14728 37.1613 6.5461 36.5268 6.82442C36.3598 6.89122 35.0906 8.14923 33.7213 9.60763L31.2275 12.2572L31.0939 11.2553C30.9381 10.0975 30.6264 9.09552 30.1477 8.24942L29.8137 7.64825L30.6375 6.85782C32.0736 5.44395 33.9996 4.36407 35.8477 3.90763C37.0834 3.61817 37.217 3.59591 39.566 3.58478L41.5477 3.56251L41.492 5.867ZM16.1982 14.2723C16.599 15.508 17.1557 16.3875 18.1354 17.3672C18.8479 18.0686 19.3154 18.4248 19.9277 18.7365C21.5086 19.5158 23.301 19.783 25.0154 19.4602C25.5609 19.36 25.7502 19.36 25.8504 19.4602C26.0619 19.6717 31.1051 19.6383 32.352 19.4268C34.957 18.9703 37.2615 17.8014 39.1541 15.9979C39.6551 15.5191 40.2785 14.84 40.5346 14.4949C40.8018 14.1498 41.0467 13.8158 41.0801 13.7713C41.158 13.6822 42.7723 14.2277 43.8855 14.7287C46.3236 15.8197 47.9824 17.4229 47.9824 18.7031C47.9824 19.1707 47.6596 19.9166 47.2254 20.4287C45.8115 22.1432 41.8928 23.8131 37.2949 24.6481C34.1332 25.227 32.8529 25.3272 28.5 25.3272C25.2604 25.3272 24.1137 25.2826 22.8223 25.1268C18.4693 24.5813 15.341 23.7686 12.7359 22.4883C10.309 21.3082 9.01758 19.9723 9.01758 18.6586C9.01758 17.4785 10.5762 15.9199 12.7916 14.8846C13.5932 14.5061 15.675 13.7045 15.8865 13.7045C15.9533 13.6934 16.098 13.9606 16.1982 14.2723ZM11.8564 24.0914C14.6285 25.4719 18.0463 26.3514 22.6553 26.908C25.06 27.1863 31.9623 27.1863 34.3447 26.908C40.1783 26.2067 44.598 24.815 47.1809 22.8779L47.9824 22.2768V25.4942V28.7115L47.1252 29.0344C45.9229 29.502 45.099 29.6244 43.9635 29.5465C43.2176 29.4908 42.8836 29.5131 42.4494 29.6578C41.7258 29.9027 41.0355 30.4928 40.657 31.2164L40.3564 31.7842L40.3008 36.8051L40.2451 41.826L39.9223 42.2824C39.477 42.9281 38.5975 43.3512 37.8627 43.2844C36.7717 43.1731 35.9256 42.4272 35.7252 41.4029C35.6807 41.1358 35.6361 39.4547 35.625 37.6846C35.625 34.7901 35.6027 34.4115 35.4135 33.9996C34.8791 32.8195 33.9662 32.2518 32.4855 32.1961C30.8713 32.1293 29.8359 32.6526 29.1902 33.8883C28.8896 34.4561 28.8896 34.4783 28.834 37.2949C28.7783 40.3565 28.7672 40.3787 28.1326 41.0578C27.7207 41.492 26.8523 41.7815 26.2734 41.6813C25.6166 41.5699 24.9709 41.1246 24.6369 40.5457L24.3252 40.0225L24.2695 35.5137C24.2027 30.5039 24.2139 30.5707 23.4123 29.7692C22.6775 29.0233 22.2545 28.8897 20.7627 28.8897C19.527 28.8897 19.3822 28.9119 18.859 29.1902C18.2355 29.5131 17.8236 29.9473 17.4451 30.6598C17.2002 31.1051 17.2002 31.2053 17.1445 36.9053L17.0889 42.6943L16.8328 43.0506C16.5211 43.4959 15.7418 43.8076 15.2074 43.7074C14.7176 43.6184 14.1609 43.1508 13.9605 42.6721C13.8381 42.3938 13.8047 41.3584 13.8047 37.7625C13.8047 32.4188 13.7936 32.3742 12.8695 31.4391C12.3018 30.8824 12.2127 30.8379 10.643 30.3369L9.01758 29.8248V26.0508V22.2768L9.81914 22.8891C10.2645 23.2231 11.1773 23.7686 11.8564 24.0914Z" fill="#A9DD67"/>
</svg>
